<svg xmlns="http://www.w3.org/2000/svg" viewBox="0 0 64 64">
  <circle cx="32" cy="32" r="31" fill="#1C1917"/>
  <g fill="#FAF8F5" transform="translate(13.000 44.785) scale(0.03996 -0.03996)">
    <path d="M285.35028076171875 625Q287.80029296875 625 287.80029296875 619.0Q287.80029296875 613 285.35028076171875 613Q255.95037841796875 613 241.02542114257812 607.0Q226.1004638671875 601 221.27548217773438 586.0Q216.45050048828125 571 216.45050048828125 542V-20.4996337890625Q216.45050048828125 -121.4998779296875 168.100341796875 -182.2999267578125Q119.75018310546875 -243.0999755859375 27.9000244140625 -243.0999755859375Q-7.45001220703125 -243.0999755859375 -28.375091552734375 -230.07492065429688Q-49.3001708984375 -217.04986572265625 -49.3001708984375 -195.19970703125Q-49.3001708984375 -179.399658203125 -39.5001220703125 -167.84954833984375Q-29.7000732421875 -156.2994384765625 -9.94989013671875 -156.2994384765625Q10.2001953125 -156.2994384765625 20.725250244140625 -166.22451782226562Q31.25030517578125 -176.14959716796875 37.925323486328125 -189.47470092773438Q44.600341796875 -202.7998046875 52.2003173828125 -212.9998779296875Q59.80029296875 -223.199951171875 74.000244140625 -223.199951171875Q104.35003662109375 -223.199951171875 120.12490844726562 -184.75006103515625Q135.8997802734375 -146.3001708984375 135.8997802734375 -56.95037841796875V544Q135.8997802734375 573 129.07479858398438 587.5Q122.24981689453125 602 102.32485961914062 607.5Q82.39990234375 613 42 613Q40 613 40.0 619.0Q40 625 42 625Q71.9000244140625 625 105.25006103515625 623.5Q138.60009765625 622 174.95013427734375 622Q208.3001708984375 622 235.87521362304688 623.5Q263.45025634765625 625 285.35028076171875 625Z"/>
    <path transform="translate(299 0)" d="M115.64971923828125 81V544Q115.64971923828125 573 109.82473754882812 587.5Q103.999755859375 602 86.57479858398438 607.5Q69.14984130859375 613 34.74993896484375 613Q32.2999267578125 613 32.2999267578125 619.0Q32.2999267578125 625 34.74993896484375 625Q59.64996337890625 625 90.27499389648438 623.5Q120.9000244140625 622 154.7000732421875 622Q191.05010986328125 622 221.400146484375 623.5Q251.75018310546875 625 275.65020751953125 625Q278.1002197265625 625 278.1002197265625 619.0Q278.1002197265625 613 275.65020751953125 613Q241.25030517578125 613 224.05035400390625 607.0Q206.85040283203125 601 200.8004150390625 586.0Q194.75042724609375 571 194.75042724609375 542V81Q194.75042724609375 52 200.3004150390625 37.0Q205.85040283203125 22 223.32534790039062 17.0Q240.80029296875 12 275.65020751953125 12Q278.55023193359375 12 278.55023193359375 6.0Q278.55023193359375 0 275.65020751953125 0Q250.75018310546875 0 220.900146484375 1.0Q191.05010986328125 2 154.7000732421875 2Q120.9000244140625 2 89.54998779296875 1.0Q58.199951171875 0 33.2999267578125 0Q31.2999267578125 0 31.2999267578125 6.0Q31.2999267578125 12 33.2999267578125 12Q68.14984130859375 12 85.84979248046875 17.0Q103.54974365234375 22 109.5997314453125 37.0Q115.64971923828125 52 115.64971923828125 81ZM370.2999267578125 145 218.45025634765625 340.44976806640625 277.55072021484375 391.600341796875 425.600830078125 199.35003662109375Q469.000732421875 142.15008544921875 499.0256652832031 106.10009765625Q529.0505981445312 70.05010986328125 549.4755554199219 50.375091552734375Q569.9005126953125 30.7000732421875 585.5504760742188 22.525054931640625Q601.200439453125 14.35003662109375 615.8004150390625 13.175018310546875Q630.400390625 12 648.0503540039062 12Q651.0503540039062 12 651.0503540039062 6.0Q651.0503540039062 0 648.0503540039062 0Q603.5003662109375 0 576.5003662109375 0.0Q549.5003662109375 0 536.0503540039062 0Q525.4502563476562 0 518.0251770019531 -0.725006103515625Q510.60009765625 -1.45001220703125 504.25006103515625 -1.45001220703125Q490.7000732421875 -1.45001220703125 481.800048828125 3.54998779296875Q472.9000244140625 8.54998779296875 461.04998779296875 23.54998779296875Q449.199951171875 38.54998779296875 428.2999267578125 67.54998779296875Q407.39990234375 96.54998779296875 370.2999267578125 145ZM142.9000244140625 277.799560546875 400.35003662109375 537.399658203125Q437.9000244140625 574.9496459960938 431.14996337890625 593.9748229980469Q424.39990234375 613 372.74993896484375 613Q370.2999267578125 613 370.2999267578125 619.0Q370.2999267578125 625 372.74993896484375 625Q398.0999755859375 625 424.1750183105469 623.5Q450.25006103515625 622 492.95013427734375 622Q534.9002685546875 622 559.3253479003906 623.5Q583.7504272460938 625 606.4505004882812 625Q609.4505004882812 625 609.4505004882812 619.0Q609.4505004882812 613 606.4505004882812 613Q567.0503540039062 613 517.5502319335938 593.3748474121094Q468.05010986328125 573.7496948242188 424.7000732421875 531.399658203125L168.25006103515625 276.99951171875Z"/>
  </g>
</svg>
